<!-- Generated by IcoMoon.io -->
<svg version="1.1" xmlns="http://www.w3.org/2000/svg" width="36" height="32" viewBox="0 0 36 32">
<title>card</title>
<path d="M29.020 0.612c-0.706 0.157-1.569 0.596-1.663 0.863-0.047 0.11-0.063 0.565-0.031 1.004l0.047 0.8 0.784-0.408c1.129-0.565 2.698-0.596 3.278-0.063 0.345 0.329 0.408 0.518 0.408 1.286 0 0.8-0.063 0.973-0.674 1.804-0.376 0.518-1.553 1.726-2.604 2.714l-1.914 1.788 0.094 1.914h7.529l0.047-0.753c0.078-1.176 0-1.208-2.416-1.208-1.333 0-2.102-0.063-2.102-0.157s0.847-0.988 1.898-2.008c1.929-1.851 2.259-2.29 2.604-3.404 0.251-0.8 0.251-1.427 0-2.118-0.565-1.569-1.333-2.071-3.31-2.133-0.784-0.031-1.678 0.016-1.976 0.078z"></path>
<path d="M10.51 4.282c-1.851 0.706-3.514 3.137-4.22 6.149-0.11 0.424-0.251 0.847-0.329 0.925s-1.255 0.157-2.62 0.157l-2.478 0.016v19.608h22.431l0.047-9.773c0.016-5.365-0.016-9.757-0.078-9.773-0.078 0-1.129-0.031-2.369-0.063-1.239-0.016-2.322-0.11-2.4-0.188s-0.22-0.502-0.282-0.925c-0.173-0.973-0.392-1.569-1.082-3.043-1.349-2.855-4.031-4.094-6.62-3.090zM13.537 7.231c0.878 0.722 1.898 2.871 1.804 3.812l-0.047 0.439-2.902-0.016c-1.6 0-2.996-0.016-3.106-0.016-0.251 0-0.11-1.239 0.22-1.867 0.126-0.22 0.22-0.486 0.22-0.565 0.016-0.314 1.067-1.678 1.506-1.976 0.706-0.471 1.6-0.392 2.306 0.188zM5.459 16.361l0.047 2.008 2.729-0.094 0.078-1.741c0.047-1.145 0.157-1.835 0.298-1.992 0.188-0.235 0.643-0.267 3.639-0.267h3.435l0.157 0.408c0.094 0.22 0.157 1.020 0.157 1.788 0 1.773 0.094 1.882 1.647 1.882 1.412 0 1.396 0 1.239-2.212-0.078-1.271-0.063-1.616 0.11-1.726 0.329-0.204 1.176-0.173 1.38 0.078 0.125 0.141 0.157 2.118 0.141 7.012l-0.047 6.808h-16.784l-0.047-6.808c-0.031-5.020 0.016-6.855 0.157-7.027 0.11-0.141 0.424-0.204 0.894-0.173l0.722 0.047 0.047 2.008z"></path>
</svg>
