<!-- Generated by IcoMoon.io -->
<svg version="1.1" xmlns="http://www.w3.org/2000/svg" width="94" height="32" viewBox="0 0 94 32">
<title>logo</title>
<path d="M2.091 16.094c0 10.144 0.031 15.373 0.105 15.404 0.052 0.021 7.038 0.010 15.498-0.021l15.404-0.052v-30.641l-31.007-0.052v15.362zM11.42 3.995c0.021 0.021 0.052 3.116 0.084 6.881l0.052 6.85 4.329 0.031c3.315 0.021 4.361 0.052 4.424 0.157 0.136 0.22 0.105 7.644-0.042 7.791-0.178 0.178-14.525 0.178-14.703 0-0.094-0.094-0.125-2.625-0.125-10.761 0-5.856 0.031-10.709 0.063-10.803 0.052-0.146 0.418-0.167 2.98-0.167 1.6 0 2.928 0.010 2.939 0.021zM29.783 17.401c0.010 7.791-0.010 10.688-0.094 10.792-0.167 0.199-5.637 0.209-5.825 0.021-0.094-0.094-0.125-1.767-0.125-6.902v-6.776h-4.319c-3.221 0-4.35-0.031-4.444-0.126s-0.126-1.098-0.126-3.848c0-2.050 0.031-3.765 0.073-3.796 0.031-0.042 3.388-0.063 7.446-0.052l7.383 0.031 0.031 10.656z"></path>
<path d="M56.993 0.837c-0.701 0.125-1.6 0.492-2.071 0.837-0.596 0.429-0.952 0.931-1.182 1.694-0.178 0.596-0.199 1.004-0.199 4.047 0 3.691 0.052 4.089 0.627 4.978 0.68 1.056 2.52 1.767 4.601 1.767 2.541 0 4.277-0.889 4.894-2.51 0.22-0.554 0.23-0.753 0.23-4.204 0-3.127-0.021-3.692-0.178-4.183-0.324-1.014-1.286-1.851-2.614-2.28-0.586-0.188-3.367-0.293-4.11-0.146zM59.294 3.127c0.063 0.136 0.105 1.684 0.105 4.319 0 4.005-0.010 4.131-0.209 4.35-0.272 0.293-0.669 0.293-0.941 0-0.199-0.22-0.209-0.345-0.209-4.319 0-4.622-0.010-4.549 0.732-4.549 0.303 0 0.439 0.052 0.523 0.199z"></path>
<path d="M40.282 1.025c-0.105 0.073-0.126 1.433-0.105 6.463l0.031 6.369h3.556l0.031-2.614c0.010-1.433 0.063-2.646 0.115-2.698 0.115-0.115 0.648 1.046 1.527 3.325 0.146 0.397 0.345 0.899 0.418 1.098 0.084 0.199 0.178 0.471 0.209 0.596 0.094 0.335 0.282 0.356 2.248 0.324l1.725-0.031 0.031-6.369c0.021-5.030 0-6.39-0.105-6.463-0.23-0.136-3.367-0.105-3.514 0.042-0.094 0.094-0.126 0.837-0.126 2.677 0 1.767-0.031 2.541-0.115 2.51-0.063-0.021-0.408-0.722-0.763-1.548-0.356-0.837-0.722-1.673-0.805-1.861-0.073-0.199-0.314-0.69-0.512-1.098l-0.366-0.753-1.673-0.021c-0.92-0.021-1.736 0.010-1.809 0.052z"></path>
<path d="M43.294 18.395c-0.084 0.052-0.387 0.125-0.659 0.157-0.711 0.105-1.736 0.596-2.154 1.035-0.941 0.962-0.993 3.116-0.105 4.424 0.387 0.575 0.523 0.659 2.625 1.757 2.384 1.224 2.583 1.391 2.74 2.28 0.167 0.952-0.188 1.548-0.931 1.548-0.648 0-0.774-0.22-0.837-1.516-0.021-0.565-0.084-1.067-0.136-1.119s-0.931-0.073-1.966-0.063l-1.872 0.031 0.010 1.255c0.010 1.38 0.146 1.82 0.742 2.363 0.868 0.795 2.437 1.244 4.298 1.244 1.861-0.010 3.66-0.575 4.35-1.37 0.554-0.648 0.722-1.935 0.45-3.388-0.303-1.569-0.941-2.091-4.675-3.859-1.025-0.481-1.255-0.784-1.255-1.61 0-0.68 0.282-1.067 0.784-1.067 0.586 0 0.753 0.282 0.805 1.307l0.031 0.523h3.974l-0.021-1.004c-0.010-0.889-0.052-1.067-0.282-1.443-0.429-0.68-1.339-1.15-2.677-1.38-0.878-0.157-3.043-0.23-3.242-0.105z"></path>
<path d="M56.993 18.405c-0.084 0.052-0.293 0.105-0.45 0.105-0.46 0-1.527 0.397-2.112 0.784-0.596 0.397-1.088 1.098-1.276 1.82-0.084 0.335-0.126 1.569-0.126 3.932-0.010 3.545 0.042 4.058 0.439 4.81 0.366 0.711 1.318 1.339 2.541 1.684 0.753 0.209 3.2 0.324 3.524 0.167 0.126-0.063 0.429-0.136 0.659-0.157 1.161-0.136 2.541-1.171 2.928-2.217 0.178-0.481 0.199-0.847 0.188-4.34-0.010-3.639-0.021-3.838-0.23-4.309-0.481-1.077-1.516-1.82-2.991-2.144-0.889-0.199-2.876-0.293-3.095-0.136zM58.709 20.727c0.146 0.199 0.167 0.795 0.167 4.319 0 4.622 0.010 4.549-0.732 4.549-0.303 0-0.439-0.052-0.523-0.199-0.063-0.136-0.105-1.694-0.105-4.34 0-4.005 0.010-4.152 0.209-4.35 0.282-0.282 0.784-0.272 0.983 0.021z"></path>
<path d="M70.588 18.395c-0.084 0.052-0.418 0.125-0.732 0.167-0.669 0.094-1.715 0.575-2.28 1.046-0.209 0.188-0.502 0.565-0.648 0.847l-0.261 0.512v3.974c0 3.712 0.010 4.016 0.209 4.539 0.408 1.119 1.422 1.83 3.043 2.123 0.868 0.157 3.116 0.157 3.848-0.010 0.868-0.188 1.809-0.659 2.342-1.171 0.533-0.523 0.69-0.805 0.847-1.558 0.146-0.763 0.178-2.593 0.052-2.719-0.073-0.073-0.889-0.094-2.196-0.084l-2.081 0.031-0.052 1.527c-0.063 1.778-0.146 1.976-0.847 1.976-0.742 0-0.722 0.167-0.722-4.549v-4.225l0.23-0.157c0.345-0.241 0.868-0.209 1.129 0.063 0.188 0.209 0.209 0.366 0.209 1.705 0 1.004 0.042 1.516 0.126 1.6 0.178 0.178 4.12 0.178 4.225 0.010 0.136-0.23 0.042-2.635-0.136-3.263-0.418-1.495-2.165-2.353-4.999-2.447-0.627-0.010-1.224 0.010-1.307 0.063z"></path>
<path d="M80.575 18.74c-0.031 0.073-0.042 2.959-0.031 6.41l0.031 6.274 2.175 0.031 2.165 0.021v-2.426c0-1.339 0.042-2.499 0.094-2.573 0.084-0.146 0.272 0.261 0.91 2.071 0.188 0.544 0.45 1.255 0.565 1.569 0.126 0.314 0.272 0.722 0.324 0.91s0.146 0.366 0.199 0.397c0.167 0.105 4.099 0.073 4.204-0.031 0.052-0.052 0.031-0.241-0.063-0.45-0.136-0.314-0.523-1.297-1.077-2.761-0.084-0.23-0.22-0.565-0.293-0.732-0.073-0.178-0.209-0.523-0.314-0.784-0.22-0.575-0.293-0.742-0.565-1.401-0.293-0.69-0.272-0.983 0.105-1.809 0.46-0.983 0.763-1.673 1.035-2.28 0.126-0.293 0.282-0.669 0.366-0.837 0.554-1.234 0.669-1.548 0.617-1.631-0.031-0.052-0.899-0.094-1.935-0.094h-1.872l-0.209 0.439c-0.105 0.251-0.356 0.805-0.554 1.244-0.199 0.429-0.523 1.161-0.711 1.621-0.335 0.816-0.701 1.506-0.742 1.401-0.010-0.031-0.042-1.088-0.084-2.353l-0.052-2.301-2.123-0.031c-1.631-0.021-2.133 0-2.165 0.105z"></path>
</svg>
