<!-- Generated by IcoMoon.io -->
<svg version="1.1" xmlns="http://www.w3.org/2000/svg" width="32" height="32" viewBox="0 0 32 32">
<title>search</title>
<path d="M15.724 1.048c-2.593 1.214-5.462 4.083-6.29 6.29-0.938 2.428-0.717 6.566 0.441 8.772l0.993 2.041-10.814 11.476 1.214 1.159 1.214 1.214 11.090-11.090 2.041 0.883c5.738 2.372 12.69-0.331 15.338-6.069 4.248-9.103-5.959-18.979-15.228-14.676zM24.441 4.8c3.972 1.986 4.966 8.441 1.766 11.752-3.145 3.31-7.614 3.476-11.034 0.497-3.531-3.090-3.641-8-0.331-11.2 2.593-2.483 6.014-2.869 9.6-1.048z"></path>
</svg>
