<!-- Generated by IcoMoon.io -->
<svg version="1.1" xmlns="http://www.w3.org/2000/svg" width="32" height="32" viewBox="0 0 32 32">
<title>square</title>
<path d="M10.346 1.119c0 0.096-0.517 1.215-1.155 2.502-1.323 2.683-3.092 6.28-4.439 9.071-0.517 1.059-1.684 3.453-2.599 5.317-0.926 1.865-1.672 3.441-1.672 3.501 0 0.072 0.205 0.217 0.457 0.325 0.241 0.12 2.093 1.023 4.114 2.021 2.021 0.986 4.836 2.37 6.256 3.056 1.42 0.698 4.066 1.997 5.859 2.875 1.805 0.89 3.32 1.612 3.38 1.612 0.084 0 1.071-1.973 4.656-9.323 0.914-1.853 2.214-4.535 2.911-5.955s1.54-3.14 1.865-3.826c0.337-0.674 0.577-1.299 0.541-1.396s-0.758-0.505-1.612-0.914c-0.842-0.421-2.562-1.251-3.826-1.865-1.251-0.614-3.633-1.78-5.293-2.586-5.474-2.683-9.347-4.571-9.396-4.571-0.024 0-0.048 0.072-0.048 0.156zM13.618 4.884c1.143 0.565 2.791 1.371 3.645 1.792 0.866 0.421 3.080 1.492 4.932 2.406 1.853 0.902 3.874 1.889 4.487 2.189 0.602 0.301 1.107 0.577 1.107 0.614s-0.289 0.662-0.65 1.396c-1.528 3.116-3.669 7.495-5.522 11.284l-1.985 4.054-1.371-0.674c-0.746-0.361-2.55-1.251-4.006-1.961s-4.295-2.105-6.316-3.092c-2.021-0.986-3.874-1.901-4.126-2.021-0.241-0.108-0.445-0.277-0.445-0.361 0-0.096 0.481-1.131 1.071-2.31 0.577-1.179 1.371-2.791 1.756-3.585s1.432-2.935 2.322-4.752c0.89-1.817 1.913-3.922 2.262-4.668 0.361-0.734 0.674-1.347 0.698-1.347s0.986 0.469 2.141 1.035z"></path>
</svg>
