<!-- Generated by IcoMoon.io -->
<svg version="1.1" xmlns="http://www.w3.org/2000/svg" width="31" height="32" viewBox="0 0 31 32">
<title>triange</title>
<path d="M11.029 2.858c0 0.031-0.497 1.476-1.103 3.216s-1.165 3.34-1.227 3.557c-0.078 0.217-0.482 1.398-0.932 2.641-0.435 1.243-0.994 2.843-1.243 3.573s-0.808 2.33-1.243 3.573c-0.435 1.243-0.932 2.641-1.087 3.107s-0.652 1.864-1.087 3.107c-1.025 2.874-1.072 3.045-0.683 2.874 0.155-0.062 0.59-0.186 0.963-0.249 0.357-0.078 0.948-0.202 1.32-0.28 0.357-0.078 1.041-0.217 1.507-0.311s1.165-0.249 1.553-0.342c0.777-0.171 1.522-0.342 2.796-0.606 0.466-0.093 1.149-0.233 1.522-0.311 2.579-0.59 4.676-1.041 5.546-1.181 0.264-0.047 0.606-0.14 0.777-0.217 0.295-0.124 0.497-0.171 2.019-0.388 0.342-0.062 0.761-0.155 0.932-0.233s0.559-0.171 0.854-0.217c0.59-0.078 1.678-0.295 2.796-0.559 0.388-0.093 0.994-0.233 1.367-0.326 0.357-0.078 0.979-0.217 1.398-0.311 0.404-0.078 1.025-0.202 1.398-0.264 0.357-0.062 0.668-0.171 0.668-0.233 0.016-0.186-2.346-2.718-8.466-9.118-2.827-2.951-6.245-6.54-7.596-7.969-2.128-2.237-2.749-2.812-2.749-2.532zM15.86 10.408c2.082 2.19 4.163 4.396 4.629 4.893 0.466 0.513 1.926 2.035 3.231 3.371s2.377 2.501 2.377 2.579c0 0.14-0.544 0.311-2.050 0.637-0.373 0.093-1.149 0.264-1.724 0.404-0.59 0.124-1.74 0.373-2.563 0.544s-1.957 0.404-2.517 0.528c-1.926 0.435-4.738 1.041-5.515 1.196-0.419 0.078-1.196 0.249-1.709 0.373-0.901 0.202-3.324 0.73-4.412 0.948-0.606 0.109-0.621 0.295 0.186-2.035 0.994-2.781 4.878-13.934 5.592-16.016 0.28-0.808 0.544-1.445 0.59-1.414 0.047 0.016 1.786 1.817 3.883 3.992z"></path>
</svg>
