<!-- Generated by IcoMoon.io -->
<svg version="1.1" xmlns="http://www.w3.org/2000/svg" width="40" height="32" viewBox="0 0 40 32">
<title>wishlist</title>
<path d="M5.184 1.408c-3.136 1.664-5.184 4.8-5.184 7.872 0 4.928 5.696 12.224 15.040 19.264l4.8 3.584 3.968-2.88c5.696-4.032 12.416-11.008 14.272-14.784 1.984-3.968 2.048-7.232 0.128-10.048-3.072-4.672-8.768-5.568-15.168-2.368l-3.328 1.664-2.752-1.6c-4.16-2.304-8.32-2.56-11.776-0.704zM16.32 6.72c3.776 2.304 3.776 2.304 5.376 1.088 4.928-3.648 9.472-4.352 12.032-1.92 1.728 1.6 1.856 3.648 0.384 6.72-1.344 2.88-6.272 8.256-10.688 11.648l-3.52 2.752-3.712-2.88c-10.24-7.936-14.144-15.104-10.048-18.304 2.56-2.048 5.76-1.728 10.176 0.896z"></path>
</svg>
