<?xml version="1.0" standalone="no"?>
<!DOCTYPE svg PUBLIC "-//W3C//DTD SVG 20010904//EN"
 "http://www.w3.org/TR/2001/REC-SVG-20010904/DTD/svg10.dtd">
<svg version="1.0" xmlns="http://www.w3.org/2000/svg"
 width="228.000000pt" height="204.000000pt" viewBox="0 0 228.000000 204.000000"
 preserveAspectRatio="xMidYMid meet">
<metadata>
Created by potrace 1.10, written by Peter Selinger 2001-2011
</metadata>
<g transform="translate(0.000000,204.000000) scale(0.100000,-0.100000)"
fill="#000000" stroke="none">
<path d="M1850 2001 c-45 -10 -100 -38 -106 -55 -3 -7 -4 -36 -2 -64 l3 -51
50 26 c72 36 172 38 209 4 22 -21 26 -33 26 -82 0 -51 -4 -62 -43 -115 -24
-33 -99 -110 -166 -173 l-122 -114 3 -61 3 -61 240 0 240 0 3 48 c5 75 0 77
-154 77 -85 0 -134 4 -134 10 0 6 54 63 121 128 123 118 144 146 166 217 16
51 16 91 0 135 -36 100 -85 132 -211 136 -50 2 -107 -1 -126 -5z"/>
<path d="M670 1767 c-118 -45 -224 -200 -269 -392 -7 -27 -16 -54 -21 -59 -5
-5 -80 -10 -167 -10 l-158 -1 0 -625 0 -625 715 0 715 0 3 623 c1 342 -1 622
-5 623 -5 0 -72 2 -151 4 -79 1 -148 7 -153 12 -5 5 -14 32 -18 59 -11 62 -25
100 -69 194 -86 182 -257 261 -422 197z m193 -188 c56 -46 121 -183 115 -243
l-3 -28 -185 1 c-102 0 -191 1 -198 1 -16 0 -7 79 14 119 8 14 14 31 14 36 1
20 68 107 96 126 45 30 102 25 147 -12z m-515 -582 l3 -128 87 3 87 3 5 111
c3 73 10 117 19 127 12 15 41 17 232 17 l219 0 10 -26 c6 -14 10 -65 10 -114
0 -113 6 -120 105 -120 90 0 89 0 79 141 -5 81 -4 103 7 110 21 13 75 11 88
-5 8 -9 10 -135 9 -447 l-3 -434 -535 0 -535 0 -3 434 c-2 320 1 437 10 448 7
9 27 13 57 11 l46 -3 3 -128z"/>
</g>
</svg>
