<?xml version="1.0" standalone="no"?>
<!DOCTYPE svg PUBLIC "-//W3C//DTD SVG 20010904//EN"
 "http://www.w3.org/TR/2001/REC-SVG-20010904/DTD/svg10.dtd">
<svg version="1.0" xmlns="http://www.w3.org/2000/svg"
 width="900.000000pt" height="306.000000pt" viewBox="0 0 900.000000 306.000000"
 preserveAspectRatio="xMidYMid meet">
<metadata>
Created by potrace 1.10, written by Peter Selinger 2001-2011
</metadata>
<g transform="translate(0.000000,306.000000) scale(0.100000,-0.100000)"
fill="#000000" stroke="none">
<path d="M200 1521 c0 -970 3 -1470 10 -1473 5 -2 673 -1 1482 2 l1473 5 0
1465 0 1465 -1482 3 -1483 2 0 -1469z m892 1157 c2 -2 5 -298 8 -658 l5 -655
414 -3 c317 -2 417 -5 423 -15 13 -21 10 -731 -4 -745 -17 -17 -1389 -17
-1406 0 -9 9 -12 251 -12 1029 0 560 3 1024 6 1033 5 14 40 16 285 16 153 0
280 -1 281 -2z m1756 -1282 c1 -745 -1 -1022 -9 -1032 -16 -19 -539 -20 -557
-2 -9 9 -12 169 -12 660 l0 648 -413 0 c-308 0 -416 3 -425 12 -9 9 -12 105
-12 368 0 196 3 360 7 363 3 4 324 6 712 5 l706 -3 3 -1019z"/>
<path d="M5450 2980 c-67 -12 -153 -47 -198 -80 -57 -41 -91 -89 -113 -162
-17 -57 -19 -96 -19 -387 0 -353 5 -391 60 -476 65 -101 241 -169 440 -169
243 0 409 85 468 240 21 53 22 72 22 402 0 299 -2 353 -17 400 -31 97 -123
177 -250 218 -56 18 -322 28 -393 14z m220 -219 c6 -13 10 -161 10 -413 0
-383 -1 -395 -20 -416 -26 -28 -64 -28 -90 0 -19 21 -20 33 -20 413 0 442 -1
435 70 435 29 0 42 -5 50 -19z"/>
<path d="M3852 2962 c-10 -7 -12 -137 -10 -618 l3 -609 170 0 170 0 3 250 c1
137 6 253 11 258 11 11 62 -100 146 -318 14 -38 33 -86 40 -105 8 -19 17 -45
20 -57 9 -32 27 -34 215 -31 l165 3 3 609 c2 481 0 611 -10 618 -22 13 -322
10 -336 -4 -9 -9 -12 -80 -12 -256 0 -169 -3 -243 -11 -240 -6 2 -39 69 -73
148 -34 80 -69 160 -77 178 -7 19 -30 66 -49 105 l-35 72 -160 2 c-88 2 -166
-1 -173 -5z"/>
<path d="M4140 1301 c-8 -5 -37 -12 -63 -15 -68 -10 -166 -57 -206 -99 -90
-92 -95 -298 -10 -423 37 -55 50 -63 251 -168 228 -117 247 -133 262 -218 16
-91 -18 -148 -89 -148 -62 0 -74 21 -80 145 -2 54 -8 102 -13 107 -5 5 -89 7
-188 6 l-179 -3 1 -120 c1 -132 14 -174 71 -226 83 -76 233 -119 411 -119 178
1 350 55 416 131 53 62 69 185 43 324 -29 150 -90 200 -447 369 -98 46 -120
75 -120 154 0 65 27 102 75 102 56 0 72 -27 77 -125 l3 -50 190 0 190 0 -2 96
c-1 85 -5 102 -27 138 -41 65 -128 110 -256 132 -84 15 -291 22 -310 10z"/>
<path d="M5450 1300 c-8 -5 -28 -10 -43 -10 -44 0 -146 -38 -202 -75 -57 -38
-104 -105 -122 -174 -8 -32 -12 -150 -12 -376 -1 -339 4 -388 42 -460 35 -68
126 -128 243 -161 72 -20 306 -31 337 -16 12 6 41 13 63 15 111 13 243 112
280 212 17 46 19 81 18 415 -1 348 -2 367 -22 412 -46 103 -145 174 -286 205
-85 19 -275 28 -296 13z m164 -222 c14 -19 16 -76 16 -413 0 -442 1 -435 -70
-435 -29 0 -42 5 -50 19 -6 13 -10 162 -10 415 0 383 1 397 20 416 27 27 75
26 94 -2z"/>
<path d="M6750 1301 c-8 -5 -40 -12 -70 -16 -64 -9 -164 -55 -218 -100 -20
-18 -48 -54 -62 -81 l-25 -49 0 -380 c0 -355 1 -384 20 -434 39 -107 136 -175
291 -203 83 -15 298 -15 368 1 83 18 173 63 224 112 51 50 66 77 81 149 14 73
17 248 5 260 -7 7 -85 9 -210 8 l-199 -3 -5 -146 c-6 -170 -14 -189 -81 -189
-71 0 -69 -16 -69 435 l0 404 22 15 c33 23 83 20 108 -6 18 -20 20 -35 20
-163 0 -96 4 -145 12 -153 17 -17 394 -17 404 -1 13 22 4 252 -13 312 -40 143
-207 225 -478 234 -60 1 -117 -1 -125 -6z"/>
<path d="M7705 1268 c-3 -7 -4 -283 -3 -613 l3 -600 208 -3 207 -2 0 232 c0
128 4 239 9 246 8 14 26 -25 87 -198 18 -52 43 -120 54 -150 12 -30 26 -69 31
-87 5 -18 14 -35 19 -38 16 -10 392 -7 402 3 5 5 3 23 -6 43 -13 30 -50 124
-103 264 -8 22 -21 54 -28 70 -7 17 -20 50 -30 75 -21 55 -28 71 -54 134 -28
66 -26 94 10 173 44 94 73 160 99 218 12 28 27 64 35 80 53 118 64 148 59 156
-3 5 -86 9 -185 9 l-179 0 -20 -42 c-10 -24 -34 -77 -53 -119 -19 -41 -50
-111 -68 -155 -32 -78 -67 -144 -71 -134 -1 3 -4 104 -8 225 l-5 220 -203 3
c-156 2 -204 0 -207 -10z"/>
</g>
</svg>
