<?xml version="1.0" standalone="no"?>
<!DOCTYPE svg PUBLIC "-//W3C//DTD SVG 20010904//EN"
 "http://www.w3.org/TR/2001/REC-SVG-20010904/DTD/svg10.dtd">
<svg version="1.0" xmlns="http://www.w3.org/2000/svg"
 width="262.000000pt" height="266.000000pt" viewBox="0 0 262.000000 266.000000"
 preserveAspectRatio="xMidYMid meet">
<metadata>
Created by potrace 1.10, written by Peter Selinger 2001-2011
</metadata>
<g transform="translate(0.000000,266.000000) scale(0.100000,-0.100000)"
fill="#000000" stroke="none">
<path d="M860 2567 c0 -8 -43 -101 -96 -208 -110 -223 -257 -522 -369 -754
-43 -88 -140 -287 -216 -442 -77 -155 -139 -286 -139 -291 0 -6 17 -18 38 -27
20 -10 174 -85 342 -168 168 -82 402 -197 520 -254 118 -58 338 -166 487 -239
150 -74 276 -134 281 -134 7 0 89 164 387 775 76 154 184 377 242 495 58 118
128 261 155 318 28 56 48 108 45 116 -3 8 -63 42 -134 76 -70 35 -213 104
-318 155 -104 51 -302 148 -440 215 -455 223 -777 380 -781 380 -2 0 -4 -6 -4
-13z m272 -313 c95 -47 232 -114 303 -149 72 -35 256 -124 410 -200 154 -75
322 -157 373 -182 50 -25 92 -48 92 -51 0 -3 -24 -55 -54 -116 -127 -259 -305
-623 -459 -938 l-165 -337 -114 56 c-62 30 -212 104 -333 163 -121 59 -357
175 -525 257 -168 82 -322 158 -343 168 -20 9 -37 23 -37 30 0 8 40 94 89 192
48 98 114 232 146 298 32 66 119 244 193 395 74 151 159 326 188 388 30 61 56
112 58 112 2 0 82 -39 178 -86z"/>
</g>
</svg>
