<?xml version="1.0" standalone="no"?>
<!DOCTYPE svg PUBLIC "-//W3C//DTD SVG 20010904//EN"
 "http://www.w3.org/TR/2001/REC-SVG-20010904/DTD/svg10.dtd">
<svg version="1.0" xmlns="http://www.w3.org/2000/svg"
 width="202.000000pt" height="206.000000pt" viewBox="0 0 202.000000 206.000000"
 preserveAspectRatio="xMidYMid meet">
<metadata>
Created by potrace 1.10, written by Peter Selinger 2001-2011
</metadata>
<g transform="translate(0.000000,206.000000) scale(0.100000,-0.100000)"
fill="#000000" stroke="none">
<path d="M710 1876 c0 -2 -32 -95 -71 -207 -39 -112 -75 -215 -79 -229 -5 -14
-31 -90 -60 -170 -28 -80 -64 -183 -80 -230 -16 -47 -52 -150 -80 -230 -28
-80 -60 -170 -70 -200 -10 -30 -42 -120 -70 -200 -66 -185 -69 -196 -44 -185
10 4 38 12 62 16 23 5 61 13 85 18 23 5 67 14 97 20 30 6 75 16 100 22 50 11
98 22 180 39 30 6 74 15 98 20 166 38 301 67 357 76 17 3 39 9 50 14 19 8 32
11 130 25 22 4 49 10 60 15 11 5 36 11 55 14 38 5 108 19 180 36 25 6 64 15
88 21 23 5 63 14 90 20 26 5 66 13 90 17 23 4 43 11 43 15 1 12 -151 175 -545
587 -182 190 -402 421 -489 513 -137 144 -177 181 -177 163z m311 -486 c134
-141 268 -283 298 -315 30 -33 124 -131 208 -217 84 -86 153 -161 153 -166 0
-9 -35 -20 -132 -41 -24 -6 -74 -17 -111 -26 -38 -8 -112 -24 -165 -35 -53
-11 -126 -26 -162 -34 -124 -28 -305 -67 -355 -77 -27 -5 -77 -16 -110 -24
-58 -13 -214 -47 -284 -61 -39 -7 -40 -19 12 131 64 179 314 897 360 1031 18
52 35 93 38 91 3 -1 115 -117 250 -257z"/>
</g>
</svg>
