<?xml version="1.0" standalone="no"?>
<!DOCTYPE svg PUBLIC "-//W3C//DTD SVG 20010904//EN"
 "http://www.w3.org/TR/2001/REC-SVG-20010904/DTD/svg10.dtd">
<svg version="1.0" xmlns="http://www.w3.org/2000/svg"
 width="62.000000pt" height="50.000000pt" viewBox="0 0 62.000000 50.000000"
 preserveAspectRatio="xMidYMid meet">
<metadata>
Created by potrace 1.10, written by Peter Selinger 2001-2011
</metadata>
<g transform="translate(0.000000,50.000000) scale(0.100000,-0.100000)"
fill="#000000" stroke="none">
<path d="M81 478 c-49 -26 -81 -75 -81 -123 0 -77 89 -191 235 -301 l75 -56
62 45 c89 63 194 172 223 231 31 62 32 113 2 157 -48 73 -137 87 -237 37 l-52
-26 -43 25 c-65 36 -130 40 -184 11z m174 -83 c59 -36 59 -36 84 -17 77 57
148 68 188 30 27 -25 29 -57 6 -105 -21 -45 -98 -129 -167 -182 l-55 -43 -58
45 c-160 124 -221 236 -157 286 40 32 90 27 159 -14z"/>
</g>
</svg>
